# xmcd
#
# Track frame offsets:
#	150
#	19665
#	40377
#	80192
#
# Disc length: 2227 seconds
# Revision: 5
# Processed by: cddbd v1.5.2PL0 Copyright (c) Steve Scherf et al.
# Submitted via: dBpowerAMP V12.0
#
DISCID=2c08b104
DTITLE=The Allman Brothers Band - At Fillmore East [MFSL UDCD 2-558]
DYEAR=1971
DGENRE=Blues Rock
TTITLE0=Statesboro Blues
TTITLE1=Done Somebody Wrong
TTITLE2=Stormy Monday
TTITLE3=You Don't Love Me
EXTD=
EXTT0=
EXTT1=
EXTT2=
EXTT3=
PLAYORDER=
